<?xml version="1.0" encoding="UTF-8"?>
<svg id="Layer_1" xmlns="http://www.w3.org/2000/svg" version="1.1" viewBox="0 0 853.5 189.8">
  <!-- Generator: Adobe Illustrator 30.0.0, SVG Export Plug-In . SVG Version: 2.1.1 Build 123)  -->
  <defs>
    <style>
      .st0 {
        fill: #fff;
      }

      .st1 {
        fill: #80caad;
      }
    </style>
  </defs>
  <polygon class="st0" points="114.6 130.7 82.2 130.7 82.2 112.3 114.6 80.5 114.6 80.5 114.6 130.7"/>
  <polygon class="st1" points="57.6 48.1 57.6 80.5 114.6 80.5 146.4 48.1 146.4 48.1 57.6 48.1"/>
  <g>
    <path class="st0" d="M145.6,48.7h40.4c9.2,0,16.7,2.8,22.4,8.4,5.7,5.6,8.6,12.5,8.6,20.9s-.4,6.3-1.3,9.2c-.9,2.9-2,5.2-3.2,6.9s-2.5,3.3-3.7,4.5-2.3,2.1-3.3,2.6l-1.3.8,15.8,28.7h-27.5l-12.3-23.4h-8.2v23.4h-26.3V48.7ZM189,73.7c-1.1-1-2.7-1.6-4.8-1.6h-12.3v11.7h12.3c2,0,3.6-.5,4.7-1.6,1.1-1,1.7-2.5,1.7-4.3s-.6-3.2-1.7-4.3Z"/>
    <path class="st0" d="M254,114.9l-4.7,15.8h-28.1l29.8-82h29.3l29.9,82h-28.1l-4.6-15.8h-23.4ZM265.7,74.5l-5.9,20.5h11.7l-5.8-20.5Z"/>
    <path class="st0" d="M340.7,103.8c3.9,3.8,8.8,5.7,14.7,5.7s4.5-.3,6.7-.9,4.1-1.4,5.6-2.3c1.5-1,2.9-1.9,4-2.8,1.2-.9,2.1-1.7,2.7-2.3l.8-.9,15.4,16.4c-.3.5-.8,1.1-1.4,1.8-.6.7-2.1,2.1-4.3,3.9s-4.6,3.6-7.2,5c-2.5,1.5-5.9,2.8-10.1,3.9-4.2,1.2-8.5,1.7-12.9,1.7-13,0-24-4.3-32.9-12.8-8.9-8.5-13.4-18.7-13.4-30.6s4.4-22,13.4-30.6c8.9-8.5,19.9-12.8,32.9-12.8s8.7.6,12.8,1.7c4.1,1.1,7.5,2.5,10.1,4.1,2.7,1.6,5,3.2,7,4.8,2,1.6,3.5,3,4.5,4.1l1.3,1.7-15.8,16.4c-.2-.2-.5-.6-.9-1s-1.2-1.2-2.5-2.3-2.6-2-4-2.9c-1.4-.8-3.2-1.6-5.4-2.2s-4.3-1-6.5-1c-5.9,0-10.8,1.9-14.7,5.7-3.9,3.8-5.9,8.6-5.9,14.2s1.9,10.3,5.9,14.2Z"/>
    <path class="st0" d="M401.4,48.7h26.3v82h-26.3V48.7Z"/>
    <path class="st0" d="M491.4,105.6c2.5-2.6,3.7-5.8,3.7-9.5v-47.5h26.4v47.5c0,10.6-3.6,19.4-10.8,26.4-7.2,7-16.5,10.5-27.8,10.5s-20.6-3.5-27.8-10.5c-7.2-7-10.8-15.8-10.8-26.4v-47.5h26.4v47.5c0,3.7,1.2,6.9,3.7,9.5s5.3,3.9,8.6,3.9,6.1-1.3,8.6-3.9Z"/>
    <path class="st0" d="M584.2,111.9l-20-25.2v43.9h-26.3V48.7h23.4l22.9,29.3,22.8-29.3h23.4v82h-26.4v-43.9l-19.9,25.2Z"/>
    <path class="st0" d="M647.1,111.8c2.4-2.3,5.5-3.4,9.2-3.4s6.8,1.1,9.2,3.4c2.4,2.3,3.6,5,3.6,8.3s-1.2,6-3.6,8.3c-2.4,2.2-5.5,3.4-9.2,3.4s-6.8-1.1-9.2-3.4c-2.4-2.3-3.6-5-3.6-8.3s1.2-6.1,3.6-8.3Z"/>
    <path class="st0" d="M704.9,114.9l-4.7,15.8h-28.1l29.8-82h29.3l29.9,82h-28.1l-4.6-15.8h-23.4ZM716.6,74.5l-5.9,20.5h11.7l-5.8-20.5Z"/>
    <path class="st0" d="M768.8,48.7h26.3v82h-26.3V48.7Z"/>
  </g>
</svg>